# xmcd
#
# Track frame offsets: 
#        150
#        19177
#        39927
#        65665
#        81580
#        94667
#        114840
#        132080
#        151687
#        174542
#
# Disc length: 2639 seconds
#
# Revision: 1
# Processed by: cddbd v1.5.2PL0 Copyright (c) Steve Scherf et al.
# Submitted via: ExactAudioCopyFreeDBPlugin 1.0
#
DISCID=740a4d0a
DTITLE=Chuck Carbo - The Barber's Blues
DYEAR=1996
DGENRE=Blues
TTITLE0=Hey, Marti Gras!
TTITLE1=I'd Rather Beg
TTITLE2=Hootie Blues - Every Day I Get the Blues
TTITLE3=The Very Thought Of You
TTITLE4=The Barber's Blues
TTITLE5=Black Widow
TTITLE6=Too Many Goodbyes
TTITLE7=A World I Never Made
TTITLE8=Don't Boogie With Your Black Drawers Off
TTITLE9=Promises
EXTD=
EXTT0=
EXTT1=
EXTT2=
EXTT3=
EXTT4=
EXTT5=
EXTT6=
EXTT7=
EXTT8=
EXTT9=
PLAYORDER=
